{
	"asset":{
		"generator":"Khronos glTF Blender I/O v4.3.47",
		"version":"2.0"
	},
	"scene":0,
	"scenes":[
		{
			"name":"Scene",
			"nodes":[
				0
			]
		}
	],
	"nodes":[
		{
			"mesh":0,
			"name":"Mesh_0"
		}
	],
	"materials":[
		{
			"doubleSided":true,
			"name":"Material_0",
			"pbrMetallicRoughness":{
				"baseColorTexture":{
					"index":0
				},
				"metallicFactor":0,
				"roughnessFactor":0.800000011920929
			}
		}
	],
	"meshes":[
		{
			"name":"Mesh_0",
			"primitives":[
				{
					"attributes":{
						"POSITION":0,
						"NORMAL":1,
						"TEXCOORD_0":2,
						"TANGENT":3
					},
					"indices":4,
					"material":0
				}
			]
		}
	],
	"textures":[
		{
			"sampler":0,
			"source":0
		}
	],
	"images":[
		{
			"mimeType":"image/jpeg",
			"name":"Image_0",
			"uri":"../../Models/textures/Image_0.jpg"
		}
	],
	"accessors":[
		{
			"bufferView":0,
			"componentType":5126,
			"count":178679,
			"max":[
				1.0106279850006104,
				0.617622971534729,
				0.6540240049362183
			],
			"min":[
				-1.0039490461349487,
				-0.6191520094871521,
				-0.6569169759750366
			],
			"type":"VEC3"
		},
		{
			"bufferView":1,
			"componentType":5126,
			"count":178679,
			"type":"VEC3"
		},
		{
			"bufferView":2,
			"componentType":5126,
			"count":178679,
			"type":"VEC2"
		},
		{
			"bufferView":3,
			"componentType":5126,
			"count":178679,
			"type":"VEC4"
		},
		{
			"bufferView":4,
			"componentType":5125,
			"count":936909,
			"type":"SCALAR"
		}
	],
	"bufferViews":[
		{
			"buffer":0,
			"byteLength":2144148,
			"byteOffset":0,
			"target":34962
		},
		{
			"buffer":0,
			"byteLength":2144148,
			"byteOffset":2144148,
			"target":34962
		},
		{
			"buffer":0,
			"byteLength":1429432,
			"byteOffset":4288296,
			"target":34962
		},
		{
			"buffer":0,
			"byteLength":2858864,
			"byteOffset":5717728,
			"target":34962
		},
		{
			"buffer":0,
			"byteLength":3747636,
			"byteOffset":8576592,
			"target":34963
		}
	],
	"samplers":[
		{
			"magFilter":9729,
			"minFilter":9987
		}
	],
	"buffers":[
		{
			"byteLength":12324228,
			"uri":"make_a_3_floor_studen_0202232129_texture-e88dc80d59443a2c1ee7e1f9ea43260b.bin"
		}
	]
}
