{
	"asset":{
		"generator":"Khronos glTF Blender I/O v4.3.47",
		"version":"2.0"
	},
	"scene":0,
	"scenes":[
		{
			"name":"Scene",
			"nodes":[
				0
			]
		}
	],
	"nodes":[
		{
			"mesh":0,
			"name":"Mesh_0"
		}
	],
	"materials":[
		{
			"doubleSided":true,
			"name":"Material_0",
			"pbrMetallicRoughness":{
				"baseColorTexture":{
					"index":0
				},
				"metallicFactor":0,
				"roughnessFactor":0.800000011920929
			}
		}
	],
	"meshes":[
		{
			"name":"Mesh_0",
			"primitives":[
				{
					"attributes":{
						"POSITION":0,
						"NORMAL":1,
						"TEXCOORD_0":2,
						"TANGENT":3
					},
					"indices":4,
					"material":0
				}
			]
		}
	],
	"textures":[
		{
			"sampler":0,
			"source":0
		}
	],
	"images":[
		{
			"mimeType":"image/jpeg",
			"name":"Image_0",
			"uri":"../../Models/Old%20Main/textures/Image_0.jpg"
		}
	],
	"accessors":[
		{
			"bufferView":0,
			"componentType":5126,
			"count":14614,
			"max":[
				1.0041240453720093,
				0.5602179765701294,
				0.5130339860916138
			],
			"min":[
				-1.0047509670257568,
				-0.5843769907951355,
				-0.5203480124473572
			],
			"type":"VEC3"
		},
		{
			"bufferView":1,
			"componentType":5126,
			"count":14614,
			"type":"VEC3"
		},
		{
			"bufferView":2,
			"componentType":5126,
			"count":14614,
			"type":"VEC2"
		},
		{
			"bufferView":3,
			"componentType":5126,
			"count":14614,
			"type":"VEC4"
		},
		{
			"bufferView":4,
			"componentType":5123,
			"count":62463,
			"type":"SCALAR"
		}
	],
	"bufferViews":[
		{
			"buffer":0,
			"byteLength":175368,
			"byteOffset":0,
			"target":34962
		},
		{
			"buffer":0,
			"byteLength":175368,
			"byteOffset":175368,
			"target":34962
		},
		{
			"buffer":0,
			"byteLength":116912,
			"byteOffset":350736,
			"target":34962
		},
		{
			"buffer":0,
			"byteLength":233824,
			"byteOffset":467648,
			"target":34962
		},
		{
			"buffer":0,
			"byteLength":124926,
			"byteOffset":701472,
			"target":34963
		}
	],
	"samplers":[
		{
			"magFilter":9729,
			"minFilter":9987
		}
	],
	"buffers":[
		{
			"byteLength":826400,
			"uri":"Old_Main-ef1ae66f1bca4730abe0cc9918be2050.bin"
		}
	]
}
