{
	"asset":{
		"generator":"Khronos glTF Blender I/O v4.3.47",
		"version":"2.0"
	},
	"scene":0,
	"scenes":[
		{
			"extras":{
				"automirror":{
					"axis":1
				}
			},
			"name":"Scene",
			"nodes":[
				0,
				3,
				5,
				6,
				14
			]
		}
	],
	"nodes":[
		{
			"camera":0,
			"name":"Camera",
			"rotation":[
				0.003476591780781746,
				0.9086577296257019,
				-0.007539836224168539,
				0.41745927929878235
			],
			"scale":[
				1.0000159740447998,
				1.0000094175338745,
				1.0000097751617432
			],
			"translation":[
				2.068002700805664,
				0.015002099797129631,
				-1.2346928119659424
			]
		},
		{
			"mesh":0,
			"name":"Cube.004",
			"translation":[
				0,
				0.3417234420776367,
				0.040201425552368164
			]
		},
		{
			"mesh":1,
			"name":"Cube.006",
			"translation":[
				0,
				0.3787418007850647,
				0.040201425552368164
			]
		},
		{
			"children":[
				1,
				2
			],
			"mesh":2,
			"name":"Cube.005",
			"translation":[
				0,
				-0.5803053379058838,
				0.6942324638366699
			]
		},
		{
			"mesh":3,
			"name":"Cylinder.002",
			"rotation":[
				-0.43156465888023376,
				0.08678845316171646,
				0.10451094806194305,
				0.8917943239212036
			],
			"scale":[
				1.3675034046173096,
				1.367503046989441,
				1.3675031661987305
			],
			"translation":[
				0.03679251670837402,
				0.47075384855270386,
				-0.15179502964019775
			]
		},
		{
			"children":[
				4
			],
			"mesh":4,
			"name":"Cylinder.001",
			"rotation":[
				0,
				-0.7659706473350525,
				0,
				0.6428755521774292
			],
			"scale":[
				0.5691381692886353,
				0.5691381096839905,
				0.5691381692886353
			],
			"translation":[
				0,
				-0.36505410075187683,
				-0.21294286847114563
			]
		},
		{
			"mesh":5,
			"name":"Cube.009",
			"rotation":[
				0,
				-1,
				0,
				4.5964805312631585e-14
			],
			"scale":[
				0.22486978769302368,
				0.22486978769302368,
				0.22486978769302368
			],
			"translation":[
				0,
				-0.413135826587677,
				1.9094243049621582
			]
		},
		{
			"mesh":6,
			"name":"Cube.002",
			"scale":[
				0.5771265625953674,
				1,
				1
			],
			"translation":[
				0,
				0.4585992097854614,
				0.09422123432159424
			]
		},
		{
			"mesh":7,
			"name":"Cube.014",
			"scale":[
				0.7044305801391602,
				1,
				1
			],
			"translation":[
				0,
				0.33874037861824036,
				0.6596602201461792
			]
		},
		{
			"mesh":8,
			"name":"Cube.015",
			"scale":[
				0.8743429780006409,
				1,
				1
			],
			"translation":[
				0,
				0.20008932054042816,
				0.3598140478134155
			]
		},
		{
			"mesh":9,
			"name":"Cube.017",
			"translation":[
				0,
				0.3422040641307831,
				-0.21241503953933716
			]
		},
		{
			"mesh":10,
			"name":"Cube.018",
			"scale":[
				0.5771265625953674,
				1,
				1
			],
			"translation":[
				0,
				0.5684916377067566,
				-0.216411292552948
			]
		},
		{
			"mesh":11,
			"name":"Cube.019",
			"scale":[
				0.5771265625953674,
				1,
				1
			],
			"translation":[
				-0.0004944212851114571,
				0.2721213400363922,
				-0.15631502866744995
			]
		},
		{
			"mesh":12,
			"name":"Cylinder.003",
			"scale":[
				0.5771265625953674,
				1,
				1
			],
			"translation":[
				-0.0009935972047969699,
				0.44020846486091614,
				-1.088788390159607
			]
		},
		{
			"children":[
				7,
				8,
				9,
				10,
				11,
				12,
				13
			],
			"mesh":13,
			"name":"Cube.016",
			"scale":[
				1.7327219247817993,
				1,
				1
			],
			"translation":[
				0,
				-0.03219011425971985,
				1.0287342071533203
			]
		}
	],
	"cameras":[
		{
			"name":"Camera",
			"perspective":{
				"aspectRatio":1.26,
				"yfov":0.5565993066055311,
				"zfar":1000,
				"znear":0.10000000149011612
			},
			"type":"perspective"
		}
	],
	"materials":[
		{
			"doubleSided":true,
			"name":"Default",
			"pbrMetallicRoughness":{
				"baseColorTexture":{
					"index":0
				},
				"metallicFactor":0,
				"roughnessFactor":0.5
			}
		}
	],
	"meshes":[
		{
			"name":"Cube.004",
			"primitives":[
				{
					"attributes":{
						"POSITION":0,
						"NORMAL":1,
						"TEXCOORD_0":2
					},
					"indices":3,
					"material":0
				}
			]
		},
		{
			"name":"Cube.003",
			"primitives":[
				{
					"attributes":{
						"POSITION":4,
						"NORMAL":5,
						"TEXCOORD_0":6
					},
					"indices":7,
					"material":0
				}
			]
		},
		{
			"name":"Cube.005",
			"primitives":[
				{
					"attributes":{
						"POSITION":8,
						"NORMAL":9,
						"TEXCOORD_0":10
					},
					"indices":11,
					"material":0
				}
			]
		},
		{
			"name":"Cylinder.003",
			"primitives":[
				{
					"attributes":{
						"POSITION":12,
						"NORMAL":13,
						"TEXCOORD_0":14,
						"TANGENT":15
					},
					"indices":16,
					"material":0
				}
			]
		},
		{
			"name":"Cylinder",
			"primitives":[
				{
					"attributes":{
						"POSITION":17,
						"NORMAL":18,
						"TEXCOORD_0":19
					},
					"indices":20,
					"material":0
				}
			]
		},
		{
			"name":"Cube.010",
			"primitives":[
				{
					"attributes":{
						"POSITION":21,
						"NORMAL":22,
						"TEXCOORD_0":23
					},
					"indices":24,
					"material":0
				}
			]
		},
		{
			"name":"Cube.012",
			"primitives":[
				{
					"attributes":{
						"POSITION":25,
						"NORMAL":26,
						"TEXCOORD_0":27
					},
					"indices":28,
					"material":0
				}
			]
		},
		{
			"name":"Cube.013",
			"primitives":[
				{
					"attributes":{
						"POSITION":29,
						"NORMAL":30,
						"TEXCOORD_0":31
					},
					"indices":32,
					"material":0
				}
			]
		},
		{
			"name":"Cube.016",
			"primitives":[
				{
					"attributes":{
						"POSITION":33,
						"NORMAL":34,
						"TEXCOORD_0":35
					},
					"indices":36,
					"material":0
				}
			]
		},
		{
			"name":"Cube.019",
			"primitives":[
				{
					"attributes":{
						"POSITION":37,
						"NORMAL":38,
						"TEXCOORD_0":39
					},
					"indices":40,
					"material":0
				}
			]
		},
		{
			"name":"Cube.001",
			"primitives":[
				{
					"attributes":{
						"POSITION":41,
						"NORMAL":42,
						"TEXCOORD_0":43,
						"TANGENT":44
					},
					"indices":45,
					"material":0
				}
			]
		},
		{
			"name":"Cube.018",
			"primitives":[
				{
					"attributes":{
						"POSITION":46,
						"NORMAL":47,
						"TEXCOORD_0":48,
						"TANGENT":49
					},
					"indices":50,
					"material":0
				}
			]
		},
		{
			"name":"Cylinder.002",
			"primitives":[
				{
					"attributes":{
						"POSITION":51,
						"NORMAL":52,
						"TEXCOORD_0":53
					},
					"indices":54,
					"material":0
				}
			]
		},
		{
			"name":"Cube.017",
			"primitives":[
				{
					"attributes":{
						"POSITION":55,
						"NORMAL":56,
						"TEXCOORD_0":57
					},
					"indices":58,
					"material":0
				}
			]
		}
	],
	"textures":[
		{
			"sampler":0,
			"source":0
		}
	],
	"images":[
		{
			"mimeType":"image/png",
			"name":"palette.png",
			"uri":"../../Assets/ScifiWeaponsPack/Palette/palette.png"
		}
	],
	"accessors":[
		{
			"bufferView":0,
			"componentType":5126,
			"count":113,
			"max":[
				0.0405769869685173,
				0.03115522488951683,
				-0.0043267011642456055
			],
			"min":[
				-0.0405769869685173,
				-0.12192719429731369,
				-0.5581547021865845
			],
			"type":"VEC3"
		},
		{
			"bufferView":1,
			"componentType":5126,
			"count":113,
			"type":"VEC3"
		},
		{
			"bufferView":2,
			"componentType":5126,
			"count":113,
			"type":"VEC2"
		},
		{
			"bufferView":3,
			"componentType":5123,
			"count":258,
			"type":"SCALAR"
		},
		{
			"bufferView":4,
			"componentType":5126,
			"count":323,
			"max":[
				0.04879974201321602,
				0.026660744100809097,
				5.960464477539063e-08
			],
			"min":[
				-0.04879974201321602,
				-0.0919351726770401,
				-0.5503094792366028
			],
			"type":"VEC3"
		},
		{
			"bufferView":5,
			"componentType":5126,
			"count":323,
			"type":"VEC3"
		},
		{
			"bufferView":6,
			"componentType":5126,
			"count":323,
			"type":"VEC2"
		},
		{
			"bufferView":7,
			"componentType":5123,
			"count":816,
			"type":"SCALAR"
		},
		{
			"bufferView":8,
			"componentType":5126,
			"count":444,
			"max":[
				0.055255770683288574,
				0.2868066430091858,
				0.08441749215126038
			],
			"min":[
				-0.055255770683288574,
				0,
				-0.3205510973930359
			],
			"type":"VEC3"
		},
		{
			"bufferView":9,
			"componentType":5126,
			"count":444,
			"type":"VEC3"
		},
		{
			"bufferView":10,
			"componentType":5126,
			"count":444,
			"type":"VEC2"
		},
		{
			"bufferView":11,
			"componentType":5123,
			"count":894,
			"type":"SCALAR"
		},
		{
			"bufferView":12,
			"componentType":5126,
			"count":96,
			"max":[
				0.07416953146457672,
				0.03583905100822449,
				0.025626257061958313
			],
			"min":[
				-0.04645729809999466,
				-0.035839349031448364,
				-0.10696917772293091
			],
			"type":"VEC3"
		},
		{
			"bufferView":13,
			"componentType":5126,
			"count":96,
			"type":"VEC3"
		},
		{
			"bufferView":14,
			"componentType":5126,
			"count":96,
			"type":"VEC2"
		},
		{
			"bufferView":15,
			"componentType":5126,
			"count":96,
			"type":"VEC4"
		},
		{
			"bufferView":16,
			"componentType":5123,
			"count":192,
			"type":"SCALAR"
		},
		{
			"bufferView":17,
			"componentType":5126,
			"count":1222,
			"max":[
				0.2081778645515442,
				0.539699912071228,
				0.20868463814258575
			],
			"min":[
				-0.24250438809394836,
				-0.21256889402866364,
				-0.20856870710849762
			],
			"type":"VEC3"
		},
		{
			"bufferView":18,
			"componentType":5126,
			"count":1222,
			"type":"VEC3"
		},
		{
			"bufferView":19,
			"componentType":5126,
			"count":1222,
			"type":"VEC2"
		},
		{
			"bufferView":20,
			"componentType":5123,
			"count":2196,
			"type":"SCALAR"
		},
		{
			"bufferView":21,
			"componentType":5126,
			"count":1687,
			"max":[
				0.11000348627567291,
				0.34726569056510925,
				4.362185955047607
			],
			"min":[
				-0.11000348627567291,
				-0.24756380915641785,
				-1.1920928955078125e-07
			],
			"type":"VEC3"
		},
		{
			"bufferView":22,
			"componentType":5126,
			"count":1687,
			"type":"VEC3"
		},
		{
			"bufferView":23,
			"componentType":5126,
			"count":1687,
			"type":"VEC2"
		},
		{
			"bufferView":24,
			"componentType":5123,
			"count":3330,
			"type":"SCALAR"
		},
		{
			"bufferView":25,
			"componentType":5126,
			"count":642,
			"max":[
				0.08735103160142899,
				0.07156035304069519,
				0.46088850498199463
			],
			"min":[
				-0.08735103160142899,
				-0.1947738230228424,
				-1.0980072021484375
			],
			"type":"VEC3"
		},
		{
			"bufferView":26,
			"componentType":5126,
			"count":642,
			"type":"VEC3"
		},
		{
			"bufferView":27,
			"componentType":5126,
			"count":642,
			"type":"VEC2"
		},
		{
			"bufferView":28,
			"componentType":5123,
			"count":1332,
			"type":"SCALAR"
		},
		{
			"bufferView":29,
			"componentType":5126,
			"count":158,
			"max":[
				0.07083825767040253,
				0.18402224779129028,
				0.0764741599559784
			],
			"min":[
				-0.07083825767040253,
				-0.20520734786987305,
				-0.10455048084259033
			],
			"type":"VEC3"
		},
		{
			"bufferView":30,
			"componentType":5126,
			"count":158,
			"type":"VEC3"
		},
		{
			"bufferView":31,
			"componentType":5126,
			"count":158,
			"type":"VEC2"
		},
		{
			"bufferView":32,
			"componentType":5123,
			"count":282,
			"type":"SCALAR"
		},
		{
			"bufferView":33,
			"componentType":5126,
			"count":190,
			"max":[
				0.028499839827418327,
				0.09596478939056396,
				0.11364907771348953
			],
			"min":[
				-0.028499839827418327,
				-0.17332029342651367,
				-0.11638244986534119
			],
			"type":"VEC3"
		},
		{
			"bufferView":34,
			"componentType":5126,
			"count":190,
			"type":"VEC3"
		},
		{
			"bufferView":35,
			"componentType":5126,
			"count":190,
			"type":"VEC2"
		},
		{
			"bufferView":36,
			"componentType":5123,
			"count":318,
			"type":"SCALAR"
		},
		{
			"bufferView":37,
			"componentType":5126,
			"count":360,
			"max":[
				0.031402137130498886,
				-0.023106016218662262,
				0.12746170163154602
			],
			"min":[
				-0.031402137130498886,
				-0.35102778673171997,
				-0.620317816734314
			],
			"type":"VEC3"
		},
		{
			"bufferView":38,
			"componentType":5126,
			"count":360,
			"type":"VEC3"
		},
		{
			"bufferView":39,
			"componentType":5126,
			"count":360,
			"type":"VEC2"
		},
		{
			"bufferView":40,
			"componentType":5123,
			"count":924,
			"type":"SCALAR"
		},
		{
			"bufferView":41,
			"componentType":5126,
			"count":243,
			"max":[
				0.07083596289157867,
				0.13602004945278168,
				0.19635097682476044
			],
			"min":[
				-0.07083596289157867,
				-0.08135724067687988,
				-0.43144679069519043
			],
			"type":"VEC3"
		},
		{
			"bufferView":42,
			"componentType":5126,
			"count":243,
			"type":"VEC3"
		},
		{
			"bufferView":43,
			"componentType":5126,
			"count":243,
			"type":"VEC2"
		},
		{
			"bufferView":44,
			"componentType":5126,
			"count":243,
			"type":"VEC4"
		},
		{
			"bufferView":45,
			"componentType":5123,
			"count":522,
			"type":"SCALAR"
		},
		{
			"bufferView":46,
			"componentType":5126,
			"count":60,
			"max":[
				0.01453431323170662,
				0.04697670787572861,
				0.01781930774450302
			],
			"min":[
				-0.014534197747707367,
				-0.04464627802371979,
				-0.05460061877965927
			],
			"type":"VEC3"
		},
		{
			"bufferView":47,
			"componentType":5126,
			"count":60,
			"type":"VEC3"
		},
		{
			"bufferView":48,
			"componentType":5126,
			"count":60,
			"type":"VEC2"
		},
		{
			"bufferView":49,
			"componentType":5126,
			"count":60,
			"type":"VEC4"
		},
		{
			"bufferView":50,
			"componentType":5123,
			"count":108,
			"type":"SCALAR"
		},
		{
			"bufferView":51,
			"componentType":5126,
			"count":144,
			"max":[
				0.03412500396370888,
				0.034125007688999176,
				0.08500255644321442
			],
			"min":[
				-0.03412512317299843,
				-0.03412512689828873,
				-0.22268038988113403
			],
			"type":"VEC3"
		},
		{
			"bufferView":52,
			"componentType":5126,
			"count":144,
			"type":"VEC3"
		},
		{
			"bufferView":53,
			"componentType":5126,
			"count":144,
			"type":"VEC2"
		},
		{
			"bufferView":54,
			"componentType":5123,
			"count":276,
			"type":"SCALAR"
		},
		{
			"bufferView":55,
			"componentType":5126,
			"count":449,
			"max":[
				0.03436113893985748,
				0.3698206841945648,
				0.10492473840713501
			],
			"min":[
				-0.03436113893985748,
				-0.0024382174015045166,
				-0.37437739968299866
			],
			"type":"VEC3"
		},
		{
			"bufferView":56,
			"componentType":5126,
			"count":449,
			"type":"VEC3"
		},
		{
			"bufferView":57,
			"componentType":5126,
			"count":449,
			"type":"VEC2"
		},
		{
			"bufferView":58,
			"componentType":5123,
			"count":906,
			"type":"SCALAR"
		}
	],
	"bufferViews":[
		{
			"buffer":0,
			"byteLength":1356,
			"byteOffset":0,
			"target":34962
		},
		{
			"buffer":0,
			"byteLength":1356,
			"byteOffset":1356,
			"target":34962
		},
		{
			"buffer":0,
			"byteLength":904,
			"byteOffset":2712,
			"target":34962
		},
		{
			"buffer":0,
			"byteLength":516,
			"byteOffset":3616,
			"target":34963
		},
		{
			"buffer":0,
			"byteLength":3876,
			"byteOffset":4132,
			"target":34962
		},
		{
			"buffer":0,
			"byteLength":3876,
			"byteOffset":8008,
			"target":34962
		},
		{
			"buffer":0,
			"byteLength":2584,
			"byteOffset":11884,
			"target":34962
		},
		{
			"buffer":0,
			"byteLength":1632,
			"byteOffset":14468,
			"target":34963
		},
		{
			"buffer":0,
			"byteLength":5328,
			"byteOffset":16100,
			"target":34962
		},
		{
			"buffer":0,
			"byteLength":5328,
			"byteOffset":21428,
			"target":34962
		},
		{
			"buffer":0,
			"byteLength":3552,
			"byteOffset":26756,
			"target":34962
		},
		{
			"buffer":0,
			"byteLength":1788,
			"byteOffset":30308,
			"target":34963
		},
		{
			"buffer":0,
			"byteLength":1152,
			"byteOffset":32096,
			"target":34962
		},
		{
			"buffer":0,
			"byteLength":1152,
			"byteOffset":33248,
			"target":34962
		},
		{
			"buffer":0,
			"byteLength":768,
			"byteOffset":34400,
			"target":34962
		},
		{
			"buffer":0,
			"byteLength":1536,
			"byteOffset":35168,
			"target":34962
		},
		{
			"buffer":0,
			"byteLength":384,
			"byteOffset":36704,
			"target":34963
		},
		{
			"buffer":0,
			"byteLength":14664,
			"byteOffset":37088,
			"target":34962
		},
		{
			"buffer":0,
			"byteLength":14664,
			"byteOffset":51752,
			"target":34962
		},
		{
			"buffer":0,
			"byteLength":9776,
			"byteOffset":66416,
			"target":34962
		},
		{
			"buffer":0,
			"byteLength":4392,
			"byteOffset":76192,
			"target":34963
		},
		{
			"buffer":0,
			"byteLength":20244,
			"byteOffset":80584,
			"target":34962
		},
		{
			"buffer":0,
			"byteLength":20244,
			"byteOffset":100828,
			"target":34962
		},
		{
			"buffer":0,
			"byteLength":13496,
			"byteOffset":121072,
			"target":34962
		},
		{
			"buffer":0,
			"byteLength":6660,
			"byteOffset":134568,
			"target":34963
		},
		{
			"buffer":0,
			"byteLength":7704,
			"byteOffset":141228,
			"target":34962
		},
		{
			"buffer":0,
			"byteLength":7704,
			"byteOffset":148932,
			"target":34962
		},
		{
			"buffer":0,
			"byteLength":5136,
			"byteOffset":156636,
			"target":34962
		},
		{
			"buffer":0,
			"byteLength":2664,
			"byteOffset":161772,
			"target":34963
		},
		{
			"buffer":0,
			"byteLength":1896,
			"byteOffset":164436,
			"target":34962
		},
		{
			"buffer":0,
			"byteLength":1896,
			"byteOffset":166332,
			"target":34962
		},
		{
			"buffer":0,
			"byteLength":1264,
			"byteOffset":168228,
			"target":34962
		},
		{
			"buffer":0,
			"byteLength":564,
			"byteOffset":169492,
			"target":34963
		},
		{
			"buffer":0,
			"byteLength":2280,
			"byteOffset":170056,
			"target":34962
		},
		{
			"buffer":0,
			"byteLength":2280,
			"byteOffset":172336,
			"target":34962
		},
		{
			"buffer":0,
			"byteLength":1520,
			"byteOffset":174616,
			"target":34962
		},
		{
			"buffer":0,
			"byteLength":636,
			"byteOffset":176136,
			"target":34963
		},
		{
			"buffer":0,
			"byteLength":4320,
			"byteOffset":176772,
			"target":34962
		},
		{
			"buffer":0,
			"byteLength":4320,
			"byteOffset":181092,
			"target":34962
		},
		{
			"buffer":0,
			"byteLength":2880,
			"byteOffset":185412,
			"target":34962
		},
		{
			"buffer":0,
			"byteLength":1848,
			"byteOffset":188292,
			"target":34963
		},
		{
			"buffer":0,
			"byteLength":2916,
			"byteOffset":190140,
			"target":34962
		},
		{
			"buffer":0,
			"byteLength":2916,
			"byteOffset":193056,
			"target":34962
		},
		{
			"buffer":0,
			"byteLength":1944,
			"byteOffset":195972,
			"target":34962
		},
		{
			"buffer":0,
			"byteLength":3888,
			"byteOffset":197916,
			"target":34962
		},
		{
			"buffer":0,
			"byteLength":1044,
			"byteOffset":201804,
			"target":34963
		},
		{
			"buffer":0,
			"byteLength":720,
			"byteOffset":202848,
			"target":34962
		},
		{
			"buffer":0,
			"byteLength":720,
			"byteOffset":203568,
			"target":34962
		},
		{
			"buffer":0,
			"byteLength":480,
			"byteOffset":204288,
			"target":34962
		},
		{
			"buffer":0,
			"byteLength":960,
			"byteOffset":204768,
			"target":34962
		},
		{
			"buffer":0,
			"byteLength":216,
			"byteOffset":205728,
			"target":34963
		},
		{
			"buffer":0,
			"byteLength":1728,
			"byteOffset":205944,
			"target":34962
		},
		{
			"buffer":0,
			"byteLength":1728,
			"byteOffset":207672,
			"target":34962
		},
		{
			"buffer":0,
			"byteLength":1152,
			"byteOffset":209400,
			"target":34962
		},
		{
			"buffer":0,
			"byteLength":552,
			"byteOffset":210552,
			"target":34963
		},
		{
			"buffer":0,
			"byteLength":5388,
			"byteOffset":211104,
			"target":34962
		},
		{
			"buffer":0,
			"byteLength":5388,
			"byteOffset":216492,
			"target":34962
		},
		{
			"buffer":0,
			"byteLength":3592,
			"byteOffset":221880,
			"target":34962
		},
		{
			"buffer":0,
			"byteLength":1812,
			"byteOffset":225472,
			"target":34963
		}
	],
	"samplers":[
		{
			"magFilter":9728,
			"minFilter":9984
		}
	],
	"buffers":[
		{
			"byteLength":227284,
			"uri":"ScifiWeapons-a42706a5bb1e5cad5429f6038cb0af41.bin"
		}
	]
}
