{
	"asset":{
		"generator":"Khronos glTF Blender I/O v4.3.47",
		"version":"2.0"
	},
	"scene":0,
	"scenes":[
		{
			"name":"Scene",
			"nodes":[
				0
			]
		}
	],
	"nodes":[
		{
			"extras":{
				"ant_landscape":{}
			},
			"mesh":0,
			"name":"Building",
			"scale":[
				2.8034565448760986,
				2.4906740188598633,
				1.784017562866211
			],
			"translation":[
				-1.8132902383804321,
				0,
				0
			]
		}
	],
	"materials":[
		{
			"doubleSided":true,
			"name":"Material",
			"normalTexture":{
				"index":0
			},
			"pbrMetallicRoughness":{
				"baseColorTexture":{
					"index":1
				},
				"metallicFactor":0,
				"metallicRoughnessTexture":{
					"index":2
				}
			}
		}
	],
	"meshes":[
		{
			"name":"Cube",
			"primitives":[
				{
					"attributes":{
						"POSITION":0,
						"NORMAL":1,
						"TEXCOORD_0":2
					},
					"indices":3,
					"material":0
				}
			]
		}
	],
	"textures":[
		{
			"sampler":0,
			"source":0
		},
		{
			"sampler":0,
			"source":1
		},
		{
			"sampler":0,
			"source":2
		}
	],
	"images":[
		{
			"mimeType":"image/png",
			"name":"Townhouse_Normal.png",
			"uri":"../../UsingAsset/house%20support%20assert/houses/Townhouse%20BLEND/Townhouse_Normal.png"
		},
		{
			"mimeType":"image/png",
			"name":"Townhouse_Color.png",
			"uri":"../../UsingAsset/house%20support%20assert/houses/Townhouse%20BLEND/Townhouse_Color.png"
		},
		{
			"mimeType":"image/png",
			"name":"Townhouse_Roughness.png",
			"uri":"../../UsingAsset/house%20support%20assert/houses/Townhouse%20BLEND/Townhouse_Roughness.png"
		}
	],
	"accessors":[
		{
			"bufferView":0,
			"componentType":5126,
			"count":2598,
			"max":[
				1.3389368057250977,
				2.758709669113159,
				1
			],
			"min":[
				-1.2973419427871704,
				-0.0014046886935830116,
				-1.01057767868042
			],
			"type":"VEC3"
		},
		{
			"bufferView":1,
			"componentType":5126,
			"count":2598,
			"type":"VEC3"
		},
		{
			"bufferView":2,
			"componentType":5126,
			"count":2598,
			"type":"VEC2"
		},
		{
			"bufferView":3,
			"componentType":5123,
			"count":5082,
			"type":"SCALAR"
		}
	],
	"bufferViews":[
		{
			"buffer":0,
			"byteLength":31176,
			"byteOffset":0,
			"target":34962
		},
		{
			"buffer":0,
			"byteLength":31176,
			"byteOffset":31176,
			"target":34962
		},
		{
			"buffer":0,
			"byteLength":20784,
			"byteOffset":62352,
			"target":34962
		},
		{
			"buffer":0,
			"byteLength":10164,
			"byteOffset":83136,
			"target":34963
		}
	],
	"samplers":[
		{
			"magFilter":9729,
			"minFilter":9987
		}
	],
	"buffers":[
		{
			"byteLength":93300,
			"uri":"Townhouse-e837f1a16d59f608d4d0acf1a14420c1.bin"
		}
	]
}
